<svg width="134" height="26" viewBox="0 0 134 26" fill="none" xmlns="http://www.w3.org/2000/svg">
<path d="M9.72 24.44C8.664 24.44 7.572 24.344 6.444 24.152C5.34 23.96 4.308 23.624 3.348 23.144C2.412 22.688 1.644 22.04 1.044 21.2C0.468 20.36 0.18 19.292 0.18 17.996C0.18 16.772 0.432 15.56 0.936 14.36C1.44 13.16 2.1 12.02 2.916 10.94C3.732 9.836 4.62 8.828 5.58 7.916C6.564 7.004 7.524 6.212 8.46 5.54C9.324 4.916 10.224 4.352 11.16 3.848C12.12 3.344 13.092 2.9 14.076 2.516C15.324 2.036 16.584 1.664 17.856 1.4C19.128 1.112 20.424 0.919998 21.744 0.823998C21.792 0.799998 21.852 0.787998 21.924 0.787998C21.996 0.787998 22.056 0.787998 22.104 0.787998C22.56 0.787998 23.088 0.847998 23.688 0.967998C24.288 1.064 24.852 1.244 25.38 1.508C25.932 1.748 26.34 2.072 26.604 2.48C26.748 2.288 26.94 1.988 27.18 1.58C27.444 1.172 27.576 0.871999 27.576 0.68C27.576 0.56 27.624 0.427999 27.72 0.283998C27.816 0.139999 27.924 0.0679991 28.044 0.0679991C28.164 0.0679991 28.236 0.127999 28.26 0.247999C28.284 0.343999 28.296 0.427999 28.296 0.5C28.296 0.644 28.212 0.907999 28.044 1.292C27.9 1.676 27.732 2.06 27.54 2.444C27.348 2.804 27.216 3.068 27.144 3.236C27.264 3.404 27.396 3.656 27.54 3.992C27.684 4.328 27.756 4.592 27.756 4.784C27.756 4.928 27.72 5.12 27.648 5.36C27.576 5.576 27.468 5.72 27.324 5.792C27.324 5.792 27.252 5.648 27.108 5.36C26.964 5.048 26.868 4.856 26.82 4.784C26.58 5.264 26.304 5.852 25.992 6.548C25.704 7.244 25.368 7.796 24.984 8.204C24.888 8.3 24.768 8.36 24.624 8.384C24.504 8.408 24.384 8.42 24.264 8.42C24.192 8.42 24.024 8.408 23.76 8.384C23.52 8.336 23.28 8.276 23.04 8.204C22.824 8.132 22.716 8.06 22.716 7.988C22.716 7.796 22.848 7.508 23.112 7.124C23.376 6.74 23.7 6.32 24.084 5.864C24.468 5.408 24.828 4.976 25.164 4.568C25.5 4.136 25.74 3.812 25.884 3.596C25.452 2.828 24.888 2.3 24.192 2.012C23.496 1.7 22.728 1.544 21.888 1.544C21.816 1.544 21.744 1.544 21.672 1.544C21.6 1.544 21.528 1.556 21.456 1.58C19.128 1.724 16.932 2.252 14.868 3.164C14.004 3.548 13.164 3.992 12.348 4.496C11.556 4.976 10.776 5.504 10.008 6.08C9.168 6.752 8.316 7.544 7.452 8.456C6.588 9.344 5.796 10.316 5.076 11.372C4.38 12.428 3.816 13.532 3.384 14.684C2.952 15.812 2.736 16.94 2.736 18.068C2.736 19.484 3.084 20.612 3.78 21.452C4.5 22.292 5.412 22.892 6.516 23.252C7.644 23.612 8.82 23.792 10.044 23.792C11.868 23.792 13.68 23.516 15.48 22.964C17.304 22.388 19.056 21.644 20.736 20.732C22.44 19.796 24 18.8 25.416 17.744C25.464 17.696 25.524 17.648 25.596 17.6C25.692 17.552 25.776 17.528 25.848 17.528C25.92 17.528 25.956 17.564 25.956 17.636C25.956 17.876 25.836 18.092 25.596 18.284C25.26 18.596 24.888 18.896 24.48 19.184C24.096 19.448 23.7 19.712 23.292 19.976C21.252 21.368 19.104 22.46 16.848 23.252C14.592 24.044 12.216 24.44 9.72 24.44ZM29.4711 11.336C29.3991 11.336 29.3511 11.252 29.3271 11.084C29.3271 10.892 29.3271 10.772 29.3271 10.724C29.3271 10.652 29.3391 10.496 29.3631 10.256C29.3871 10.016 29.4591 9.884 29.5791 9.86C29.9151 9.812 30.2511 9.752 30.5871 9.68C30.9231 9.608 31.2591 9.524 31.5951 9.428C31.6431 9.404 31.7151 9.392 31.8111 9.392C31.9311 9.392 31.9911 9.452 31.9911 9.572C31.9911 9.836 31.8231 10.112 31.4871 10.4C31.1751 10.664 30.8151 10.892 30.4071 11.084C30.0231 11.252 29.7111 11.336 29.4711 11.336ZM26.5551 23C25.3791 23 24.7911 22.4 24.7911 21.2C24.7911 20.696 24.8631 20.18 25.0071 19.652C25.1751 19.124 25.3551 18.632 25.5471 18.176C25.7631 17.648 26.0031 17.132 26.2671 16.628C26.5311 16.124 26.7951 15.62 27.0591 15.116C27.1791 14.9 27.2871 14.684 27.3831 14.468C27.5031 14.228 27.6231 14 27.7431 13.784C27.8631 13.616 28.0911 13.472 28.4271 13.352C28.7631 13.232 29.0271 13.172 29.2191 13.172C29.2431 13.172 29.2431 13.184 29.2191 13.208C29.1951 13.208 29.1831 13.208 29.1831 13.208C29.2071 13.208 29.2191 13.22 29.2191 13.244C29.2671 13.196 29.3271 13.172 29.3991 13.172C29.4951 13.172 29.5551 13.22 29.5791 13.316C29.6031 13.388 29.6151 13.46 29.6151 13.532C29.6151 13.7 29.5431 13.952 29.3991 14.288C29.2791 14.624 29.1231 14.948 28.9311 15.26C28.7631 15.548 28.5951 15.728 28.4271 15.8C28.2111 16.304 27.9231 16.856 27.5631 17.456C27.2271 18.056 26.9151 18.668 26.6271 19.292C26.3391 19.892 26.1951 20.48 26.1951 21.056C26.1951 21.728 26.5551 22.064 27.2751 22.064C27.6111 22.064 27.9711 21.956 28.3551 21.74C28.7631 21.524 29.1591 21.272 29.5431 20.984C29.9271 20.672 30.2511 20.408 30.5151 20.192C30.8031 19.976 30.9831 19.868 31.0551 19.868C31.0791 19.868 31.0911 19.88 31.0911 19.904C31.0911 20 31.0551 20.108 30.9831 20.228C30.9111 20.324 30.8511 20.396 30.8031 20.444C30.5151 20.828 30.1311 21.224 29.6511 21.632C29.1711 22.016 28.6551 22.34 28.1031 22.604C27.5751 22.868 27.0591 23 26.5551 23ZM30.2487 23.54C30.0807 23.54 30.0087 23.48 30.0327 23.36C30.7047 22.208 31.3167 21.032 31.8687 19.832C32.4447 18.632 32.9847 17.42 33.4887 16.196C33.4887 16.148 33.5367 16.016 33.6327 15.8C33.7287 15.56 33.7767 15.428 33.7767 15.404C33.7767 15.332 33.7167 15.308 33.5967 15.332C33.4767 15.356 33.4167 15.32 33.4167 15.224C33.4167 15.176 33.5127 14.996 33.7047 14.684C33.8967 14.348 34.1007 14.012 34.3167 13.676C34.5327 13.316 34.6647 13.1 34.7127 13.028C34.8327 12.884 35.0607 12.74 35.3967 12.596C35.7327 12.452 35.9847 12.38 36.1527 12.38C36.3927 12.38 36.5127 12.488 36.5127 12.704C36.5127 12.776 36.4287 13.016 36.2607 13.424C36.0927 13.832 35.8767 14.312 35.6127 14.864C35.3487 15.416 35.0847 15.98 34.8207 16.556C34.5567 17.132 34.3167 17.636 34.1007 18.068C33.8847 18.5 33.7407 18.788 33.6687 18.932C33.8607 18.692 34.1727 18.344 34.6047 17.888C35.0607 17.408 35.5647 16.892 36.1167 16.34C36.6927 15.788 37.2687 15.26 37.8447 14.756C38.4207 14.228 38.9367 13.808 39.3927 13.496C39.8727 13.16 40.2447 12.992 40.5087 12.992C40.7007 12.992 40.8087 13.064 40.8327 13.208C40.8807 13.352 40.9047 13.484 40.9047 13.604C40.9047 13.916 40.8687 14.24 40.7967 14.576C40.7247 14.912 40.6407 15.236 40.5447 15.548C40.3527 16.268 40.1127 17.12 39.8247 18.104C39.5607 19.064 39.4287 19.904 39.4287 20.624C39.4287 20.984 39.4887 21.32 39.6087 21.632C39.7527 21.92 40.0407 22.064 40.4727 22.064C40.8087 22.064 41.1567 21.956 41.5167 21.74C41.9007 21.524 42.2487 21.272 42.5607 20.984C42.8967 20.672 43.1847 20.408 43.4247 20.192C43.6887 19.976 43.8567 19.868 43.9287 19.868C43.9527 19.868 43.9647 19.892 43.9647 19.94C43.9647 20.012 43.9407 20.108 43.8927 20.228C43.8687 20.324 43.8327 20.396 43.7847 20.444C43.4007 21.044 42.8367 21.62 42.0927 22.172C41.3727 22.724 40.6527 23 39.9327 23C39.1887 23 38.6247 22.784 38.2407 22.352C37.8807 21.896 37.7007 21.308 37.7007 20.588C37.7007 19.964 37.8087 19.268 38.0247 18.5C38.2647 17.732 38.4687 17.036 38.6367 16.412C38.6847 16.22 38.7447 15.992 38.8167 15.728C38.9127 15.464 38.9607 15.236 38.9607 15.044C38.9607 14.996 38.9487 14.936 38.9247 14.864C38.9007 14.792 38.8527 14.756 38.7807 14.756C38.6607 14.756 38.5047 14.828 38.3127 14.972C38.1447 15.092 38.0127 15.188 37.9167 15.26C37.4607 15.644 36.9447 16.136 36.3687 16.736C35.8167 17.336 35.2647 17.996 34.7127 18.716C34.1607 19.412 33.6567 20.096 33.2007 20.768C32.7447 21.44 32.3847 22.04 32.1207 22.568C32.0727 22.688 31.9167 22.832 31.6527 23C31.4127 23.144 31.1487 23.264 30.8607 23.36C30.5967 23.48 30.3927 23.54 30.2487 23.54ZM44.1248 23.252C43.5968 23.252 43.2488 23.168 43.0808 23C42.9128 22.832 42.8288 22.484 42.8288 21.956C42.8288 21.38 42.9608 20.72 43.2248 19.976C43.5128 19.232 43.7768 18.608 44.0168 18.104C44.0168 18.08 44.0048 18.068 43.9808 18.068C43.9808 18.044 43.9808 18.02 43.9808 17.996C43.9808 17.876 44.0168 17.78 44.0888 17.708C44.1848 17.636 44.2568 17.564 44.3048 17.492C44.4248 17.3 44.5328 17.108 44.6288 16.916C44.7248 16.724 44.8208 16.544 44.9168 16.376C45.3248 15.728 45.8168 15.104 46.3928 14.504C46.9928 13.904 47.6648 13.496 48.4088 13.28C48.6728 13.208 48.9248 13.172 49.1648 13.172C49.2128 13.172 49.2608 13.184 49.3088 13.208C49.3808 13.208 49.4168 13.232 49.4168 13.28C49.4168 13.352 49.3448 13.436 49.2008 13.532C49.0808 13.628 48.9968 13.7 48.9488 13.748C48.5648 14.06 48.1448 14.54 47.6888 15.188C47.2568 15.836 46.9088 16.364 46.6448 16.772C47.1968 16.676 47.7368 16.604 48.2648 16.556C48.8168 16.508 49.3568 16.508 49.8848 16.556C50.1488 16.172 50.3888 15.704 50.6048 15.152C50.8448 14.576 50.9648 14.048 50.9648 13.568C50.9648 13.304 50.9288 13.148 50.8568 13.1C50.8088 13.052 50.6768 13.028 50.4608 13.028C50.4128 13.028 50.3408 13.016 50.2448 12.992C50.1488 12.968 50.1008 12.92 50.1008 12.848C50.1008 12.752 50.2088 12.668 50.4248 12.596C50.6408 12.524 50.8688 12.476 51.1088 12.452C51.3488 12.404 51.5048 12.38 51.5768 12.38C52.2248 12.38 52.5488 12.68 52.5488 13.28C52.5488 13.616 52.4408 14.024 52.2248 14.504C52.0328 14.96 51.7808 15.392 51.4688 15.8C51.1808 16.184 50.8928 16.46 50.6048 16.628C50.6768 16.628 50.8208 16.664 51.0368 16.736C51.2768 16.784 51.4928 16.844 51.6848 16.916C51.9008 16.988 52.0088 17.072 52.0088 17.168C52.0088 17.24 51.9368 17.288 51.7928 17.312C51.6488 17.312 51.5528 17.312 51.5048 17.312C51.2888 17.312 51.0728 17.3 50.8568 17.276C50.6408 17.228 50.4248 17.204 50.2088 17.204C49.5368 17.204 48.8528 17.252 48.1568 17.348C47.4848 17.444 46.8128 17.564 46.1408 17.708C45.9008 18.14 45.6248 18.692 45.3128 19.364C45.0248 20.036 44.8808 20.636 44.8808 21.164C44.8808 22.004 45.3128 22.424 46.1768 22.424C46.8008 22.424 47.4008 22.256 47.9768 21.92C48.5768 21.584 49.1288 21.188 49.6328 20.732C50.1368 20.276 50.5448 19.88 50.8568 19.544C51.1688 19.208 51.3488 19.04 51.3968 19.04C51.4688 19.04 51.5048 19.088 51.5048 19.184C51.5048 19.472 51.3368 19.82 51.0008 20.228C50.6648 20.612 50.3888 20.888 50.1728 21.056C49.3328 21.704 48.3848 22.232 47.3288 22.64C46.2968 23.048 45.2288 23.252 44.1248 23.252ZM58.9978 25.376C58.8298 25.376 58.7458 25.268 58.7458 25.052C58.7458 24.956 58.7578 24.872 58.7818 24.8C58.8298 24.728 58.8658 24.656 58.8898 24.584C59.2498 23.864 59.7418 22.952 60.3658 21.848C60.9898 20.744 61.6738 19.532 62.4178 18.212C63.1618 16.892 63.9058 15.548 64.6498 14.18C65.3938 12.788 66.0778 11.444 66.7018 10.148C67.3258 8.828 67.8298 7.628 68.2138 6.548C68.5978 5.468 68.7898 4.58 68.7898 3.884C68.7898 3.284 68.5978 2.84 68.2138 2.552C67.8538 2.24 67.4098 2.036 66.8818 1.94C66.3778 1.82 65.8978 1.76 65.4418 1.76C64.4578 1.76 63.3898 1.904 62.2378 2.192C61.0858 2.456 59.9698 2.816 58.8898 3.272C57.8098 3.728 56.8618 4.232 56.0458 4.784C55.6378 5.048 55.1938 5.384 54.7138 5.792C54.2338 6.2 53.8258 6.656 53.4898 7.16C53.1778 7.64 53.0218 8.156 53.0218 8.708C53.0218 9.332 53.2138 9.848 53.5978 10.256C54.0058 10.664 54.4978 11 55.0738 11.264C55.6498 11.528 56.1778 11.744 56.6578 11.912C56.7058 11.936 56.8138 11.984 56.9818 12.056C57.1498 12.128 57.2338 12.212 57.2338 12.308C57.2338 12.356 57.1858 12.392 57.0898 12.416C57.0178 12.416 56.9698 12.416 56.9458 12.416C56.8738 12.416 56.8018 12.416 56.7298 12.416C56.6578 12.392 56.5858 12.38 56.5138 12.38C56.0578 12.308 55.5418 12.2 54.9658 12.056C54.3898 11.888 53.8378 11.684 53.3098 11.444C52.7818 11.18 52.3378 10.844 51.9778 10.436C51.6418 10.028 51.4738 9.536 51.4738 8.96C51.4738 8.264 51.7018 7.604 52.1578 6.98C52.6138 6.356 53.1538 5.792 53.7778 5.288C54.4018 4.76 54.9658 4.328 55.4698 3.992C56.3818 3.416 57.4138 2.9 58.5658 2.444C59.7178 1.964 60.8938 1.592 62.0938 1.328C63.3178 1.04 64.4698 0.895999 65.5498 0.895999C66.1978 0.895999 66.8818 0.991999 67.6018 1.184C68.3458 1.352 68.9818 1.664 69.5098 2.12C70.0378 2.552 70.3018 3.176 70.3018 3.992C70.3018 4.544 70.1338 5.288 69.7978 6.224C69.4858 7.136 69.0658 8.156 68.5378 9.284C68.0338 10.412 67.4578 11.576 66.8098 12.776C66.1858 13.976 65.5498 15.14 64.9018 16.268C64.2778 17.372 63.7018 18.38 63.1738 19.292C62.6458 20.18 62.2138 20.888 61.8778 21.416C61.4938 21.992 61.1218 22.58 60.7618 23.18C60.4018 23.804 60.0178 24.392 59.6098 24.944C59.5378 25.04 59.4418 25.136 59.3218 25.232C59.2258 25.328 59.1178 25.376 58.9978 25.376ZM78.0418 23.612C77.0098 23.612 76.1938 23.336 75.5938 22.784C74.9938 22.232 74.5618 21.536 74.2978 20.696C74.0578 19.856 73.9378 18.992 73.9378 18.104C73.9378 16.736 74.1418 15.368 74.5498 14C74.9578 12.608 75.5098 11.276 76.2058 10.004C76.9258 8.732 77.7298 7.604 78.6178 6.62C78.1378 6.764 77.5138 7.112 76.7458 7.664C76.0018 8.216 75.1738 8.888 74.2618 9.68C73.3738 10.472 72.4618 11.324 71.5258 12.236C70.5898 13.148 69.6898 14.048 68.8258 14.936C67.9618 15.824 67.1818 16.64 66.4858 17.384C65.7898 18.104 65.2498 18.68 64.8658 19.112C64.5058 19.52 64.0618 20 63.5338 20.552C63.0298 21.104 62.6458 21.62 62.3818 22.1C62.3818 22.124 62.3218 22.256 62.2018 22.496C62.0818 22.736 61.9738 22.856 61.8778 22.856C61.8538 22.856 61.8418 22.808 61.8418 22.712C61.8418 22.52 61.8778 22.292 61.9498 22.028C62.0458 21.764 62.1178 21.548 62.1658 21.38C62.2378 21.164 62.5018 20.78 62.9578 20.228C63.4138 19.676 63.9778 19.016 64.6498 18.248C65.3458 17.48 66.0778 16.676 66.8458 15.836C67.6378 14.996 68.4058 14.192 69.1498 13.424C69.8938 12.656 70.5418 11.984 71.0938 11.408C71.6698 10.832 72.0898 10.424 72.3538 10.184C72.7378 9.824 73.2418 9.416 73.8658 8.96C74.5138 8.48 75.1978 8 75.9178 7.52C76.6618 7.04 77.3698 6.608 78.0418 6.224C78.7378 5.84 79.3258 5.564 79.8058 5.396C79.9258 5.324 80.0698 5.288 80.2378 5.288C80.3578 5.288 80.5138 5.312 80.7058 5.36C80.9218 5.408 81.0538 5.504 81.1018 5.648C81.0778 5.648 81.0658 5.672 81.0658 5.72C80.8498 5.984 80.6338 6.248 80.4178 6.512C80.2258 6.776 80.0338 7.052 79.8418 7.34C79.2178 8.324 78.6178 9.476 78.0418 10.796C77.4658 12.116 76.9978 13.472 76.6378 14.864C76.2778 16.256 76.0978 17.54 76.0978 18.716C76.0978 19.22 76.1458 19.796 76.2418 20.444C76.3618 21.092 76.5778 21.668 76.8898 22.172C77.2258 22.652 77.7298 22.892 78.4018 22.892C79.1218 22.892 79.8898 22.628 80.7058 22.1C81.5458 21.548 82.3618 20.876 83.1538 20.084C83.9698 19.268 84.7018 18.452 85.3498 17.636C85.9978 16.82 86.5138 16.148 86.8978 15.62C87.8578 14.228 88.6858 12.812 89.3818 11.372C89.7178 10.652 90.0418 9.848 90.3538 8.96C90.6658 8.048 90.8218 7.184 90.8218 6.368C90.8218 4.52 89.8858 3.596 88.0138 3.596C87.7978 3.596 87.6898 3.5 87.6898 3.308C87.6898 3.092 87.7978 2.984 88.0138 2.984C89.1418 2.984 90.0178 3.38 90.6418 4.172C91.2898 4.964 91.6138 5.912 91.6138 7.016V7.232C91.6138 8.216 91.4938 9.176 91.2538 10.112C91.0138 11.024 90.7018 11.936 90.3178 12.848C90.0058 13.592 89.6338 14.324 89.2018 15.044C88.7938 15.74 88.3498 16.424 87.8698 17.096C87.3658 17.792 86.7418 18.524 85.9978 19.292C85.2538 20.036 84.4378 20.744 83.5498 21.416C82.6858 22.064 81.7858 22.592 80.8498 23C79.9138 23.408 78.9778 23.612 78.0418 23.612ZM91.0676 23.288C90.5396 23.288 90.1196 23.192 89.8076 23C89.5196 22.784 89.3756 22.376 89.3756 21.776C89.3756 21.032 89.5676 20.204 89.9516 19.292C90.3596 18.38 90.8396 17.504 91.3916 16.664C91.9436 15.8 92.4596 15.092 92.9396 14.54V14.468C92.9396 13.892 93.1676 13.424 93.6236 13.064C94.1036 12.68 94.6556 12.404 95.2796 12.236C95.9036 12.044 96.4436 11.948 96.8996 11.948C97.5236 11.948 98.0396 12.092 98.4476 12.38C98.8796 12.668 99.0956 13.16 99.0956 13.856C99.0956 14.456 98.9396 15.152 98.6276 15.944C98.3156 16.712 97.9076 17.504 97.4036 18.32C96.9236 19.112 96.4076 19.844 95.8556 20.516C95.3036 21.164 94.7996 21.68 94.3436 22.064C94.7036 22.496 95.1716 22.712 95.7476 22.712C95.7956 22.712 95.8556 22.724 95.9276 22.748C95.9996 22.772 96.0356 22.808 96.0356 22.856C96.0356 22.952 95.9876 23.012 95.8916 23.036C95.8196 23.06 95.7476 23.072 95.6756 23.072C95.3636 23.072 95.0636 23 94.7756 22.856C94.5116 22.688 94.2716 22.484 94.0556 22.244C93.1676 22.94 92.1716 23.288 91.0676 23.288ZM94.0196 21.596C94.5476 21.092 95.0636 20.396 95.5676 19.508C96.0956 18.596 96.5396 17.66 96.8996 16.7C97.2596 15.716 97.4396 14.864 97.4396 14.144C97.4396 13.856 97.3796 13.556 97.2596 13.244C97.1396 12.932 96.8876 12.776 96.5036 12.776C96.2156 12.776 95.9396 12.884 95.6756 13.1C95.4116 13.316 95.2196 13.556 95.0996 13.82C95.1476 13.892 95.1956 13.988 95.2436 14.108C95.3156 14.228 95.3516 14.336 95.3516 14.432C95.3516 14.528 95.3276 14.588 95.2796 14.612C94.9676 14.78 94.6676 14.972 94.3796 15.188C94.1156 15.38 93.8516 15.608 93.5876 15.872C93.4916 16.232 93.4196 16.604 93.3716 16.988C93.3236 17.372 93.2996 17.756 93.2996 18.14C93.2996 18.692 93.3476 19.28 93.4436 19.904C93.5636 20.528 93.7556 21.092 94.0196 21.596ZM92.5076 22.388C92.7476 22.388 92.9636 22.34 93.1556 22.244C93.3716 22.124 93.5636 21.992 93.7316 21.848C93.3476 21.248 93.0716 20.552 92.9036 19.76C92.7356 18.968 92.6516 18.224 92.6516 17.528C92.3396 18.032 92.0516 18.56 91.7876 19.112C91.5236 19.64 91.3916 20.216 91.3916 20.84C91.3916 21.2 91.4636 21.548 91.6076 21.884C91.7756 22.22 92.0756 22.388 92.5076 22.388ZM98.8034 23.54C98.6354 23.54 98.5634 23.48 98.5874 23.36C99.2114 22.256 99.7634 21.128 100.243 19.976C100.723 18.8 101.191 17.624 101.647 16.448L102.043 15.404C102.043 15.332 101.983 15.308 101.863 15.332C101.743 15.356 101.683 15.32 101.683 15.224C101.683 15.176 101.779 14.996 101.971 14.684C102.163 14.348 102.367 14.012 102.583 13.676C102.799 13.316 102.931 13.1 102.979 13.028C103.075 12.884 103.291 12.74 103.627 12.596C103.963 12.452 104.215 12.38 104.383 12.38C104.647 12.38 104.779 12.488 104.779 12.704C104.779 12.776 104.767 12.848 104.743 12.92C104.719 12.992 104.695 13.052 104.671 13.1C104.311 13.964 103.915 14.828 103.483 15.692C103.075 16.532 102.739 17.408 102.475 18.32C103.171 17.48 103.927 16.664 104.743 15.872C105.583 15.056 106.435 14.312 107.299 13.64C107.539 13.448 107.803 13.268 108.091 13.1C108.403 12.932 108.715 12.848 109.027 12.848C109.411 12.848 109.651 12.992 109.747 13.28C109.843 13.544 109.891 13.82 109.891 14.108C109.891 14.492 109.771 14.9 109.531 15.332C109.291 15.764 108.943 15.98 108.487 15.98C108.295 15.98 108.199 15.908 108.199 15.764C108.199 15.644 108.211 15.548 108.235 15.476C108.259 15.38 108.271 15.284 108.271 15.188C108.271 15.068 108.223 14.924 108.127 14.756C108.031 14.588 107.923 14.504 107.803 14.504C107.491 14.504 107.071 14.696 106.543 15.08C106.015 15.464 105.463 15.932 104.887 16.484C104.335 17.036 103.831 17.576 103.375 18.104C102.943 18.608 102.631 18.98 102.439 19.22C102.175 19.604 101.947 20 101.755 20.408C101.563 20.792 101.407 21.188 101.287 21.596C101.239 21.74 101.191 21.896 101.143 22.064C101.095 22.208 101.047 22.34 100.999 22.46C100.951 22.58 100.771 22.736 100.459 22.928C100.147 23.096 99.8234 23.24 99.4874 23.36C99.1754 23.48 98.9474 23.54 98.8034 23.54ZM110.147 23.072C109.475 23.072 109.139 22.724 109.139 22.028C109.139 21.716 109.187 21.38 109.283 21.02C109.403 20.66 109.511 20.336 109.607 20.048C110.255 18.368 111.047 16.616 111.983 14.792C112.919 12.944 113.915 11.144 114.971 9.392C116.027 7.616 117.059 5.984 118.067 4.496C118.019 4.304 117.995 4.136 117.995 3.992C117.995 3.872 118.007 3.776 118.031 3.704C118.103 3.608 118.235 3.404 118.427 3.092C118.619 2.78 118.811 2.48 119.003 2.192C119.219 1.88 119.351 1.7 119.399 1.652C119.519 1.508 119.747 1.4 120.083 1.328C120.443 1.256 120.719 1.22 120.911 1.22C121.031 1.22 121.211 1.244 121.451 1.292C121.715 1.316 121.847 1.412 121.847 1.58C121.847 1.652 121.835 1.688 121.811 1.688C121.427 2.24 121.031 2.804 120.623 3.38C120.239 3.932 119.855 4.484 119.471 5.036C118.079 7.124 116.771 9.26 115.547 11.444C114.347 13.604 113.195 15.8 112.091 18.032C111.875 18.44 111.635 18.956 111.371 19.58C111.131 20.204 111.011 20.744 111.011 21.2C111.011 21.656 111.191 21.884 111.551 21.884C111.863 21.884 112.211 21.776 112.595 21.56C112.979 21.344 113.339 21.104 113.675 20.84C114.035 20.552 114.335 20.3 114.575 20.084C114.839 19.868 115.007 19.76 115.079 19.76C115.127 19.76 115.151 19.808 115.151 19.904C115.151 20 115.103 20.132 115.007 20.3C114.935 20.444 114.863 20.564 114.791 20.66C114.359 21.164 113.747 21.644 112.955 22.1C112.163 22.556 111.455 22.856 110.831 23C110.735 23.024 110.627 23.036 110.507 23.036C110.387 23.06 110.267 23.072 110.147 23.072ZM123.531 23.288C122.883 23.288 122.451 23.036 122.235 22.532C122.043 22.004 121.947 21.476 121.947 20.948C121.947 20.612 121.983 20.18 122.055 19.652C122.151 19.124 122.259 18.608 122.379 18.104C122.523 17.6 122.667 17.204 122.811 16.916C122.355 17.708 121.815 18.476 121.191 19.22C120.951 19.508 120.603 19.88 120.147 20.336C119.715 20.768 119.235 21.212 118.707 21.668C118.179 22.124 117.663 22.508 117.159 22.82C116.655 23.108 116.199 23.252 115.791 23.252C115.503 23.252 115.311 23.156 115.215 22.964C115.143 22.772 115.107 22.556 115.107 22.316C115.107 21.812 115.227 21.176 115.467 20.408C115.707 19.64 116.031 18.836 116.439 17.996C116.871 17.132 117.351 16.34 117.879 15.62C118.431 14.9 118.995 14.324 119.571 13.892C120.171 13.436 120.771 13.232 121.371 13.28C121.707 13.112 121.995 12.98 122.235 12.884C122.475 12.764 122.775 12.704 123.135 12.704C123.399 12.704 123.663 12.728 123.927 12.776C124.191 12.8 124.443 12.836 124.683 12.884C125.427 11.468 126.171 10.052 126.915 8.636C127.659 7.196 128.475 5.816 129.363 4.496C129.291 4.352 129.255 4.184 129.255 3.992C129.255 3.872 129.279 3.776 129.327 3.704C129.399 3.584 129.531 3.38 129.723 3.092C129.915 2.78 130.107 2.48 130.299 2.192C130.491 1.904 130.611 1.724 130.659 1.652C130.779 1.508 131.007 1.4 131.343 1.328C131.703 1.256 131.979 1.22 132.171 1.22C132.291 1.22 132.471 1.244 132.711 1.292C132.975 1.316 133.107 1.412 133.107 1.58C133.107 1.652 133.095 1.688 133.071 1.688C132.711 2.216 132.327 2.744 131.919 3.272C131.535 3.8 131.163 4.34 130.803 4.892C129.867 6.26 128.967 7.652 128.103 9.068C127.239 10.46 126.435 11.9 125.691 13.388C125.691 13.772 125.595 14.096 125.403 14.36C125.211 14.624 125.019 14.912 124.827 15.224C124.779 15.32 124.731 15.428 124.683 15.548C124.659 15.668 124.623 15.788 124.575 15.908C124.335 16.58 124.107 17.324 123.891 18.14C123.675 18.932 123.567 19.7 123.567 20.444C123.567 20.756 123.603 21.128 123.675 21.56C123.771 21.992 124.023 22.208 124.431 22.208C124.839 22.208 125.247 22.052 125.655 21.74C126.087 21.404 126.459 21.08 126.771 20.768C127.083 20.432 127.263 20.264 127.311 20.264C127.335 20.264 127.347 20.288 127.347 20.336C127.347 20.552 127.227 20.804 126.987 21.092C126.747 21.38 126.483 21.656 126.195 21.92C125.931 22.16 125.727 22.34 125.583 22.46C125.295 22.676 124.971 22.868 124.611 23.036C124.251 23.204 123.891 23.288 123.531 23.288ZM117.051 22.028C117.171 22.028 117.303 21.98 117.447 21.884C117.615 21.764 117.747 21.668 117.843 21.596C119.139 20.66 120.267 19.496 121.227 18.104C122.211 16.688 123.027 15.26 123.675 13.82C123.435 13.676 123.147 13.604 122.811 13.604C122.379 13.604 121.947 13.724 121.515 13.964C121.107 14.18 120.759 14.456 120.471 14.792C120.015 15.272 119.547 15.908 119.067 16.7C118.611 17.468 118.191 18.26 117.807 19.076C117.447 19.892 117.159 20.636 116.943 21.308C116.919 21.38 116.895 21.452 116.871 21.524C116.871 21.596 116.871 21.68 116.871 21.776C116.871 21.944 116.931 22.028 117.051 22.028Z" fill="#0DA612"/>
</svg>
