<svg width="29" height="25" viewBox="0 0 29 25" fill="none" xmlns="http://www.w3.org/2000/svg">
<path d="M9.72 24.44C8.664 24.44 7.572 24.344 6.444 24.152C5.34 23.96 4.308 23.624 3.348 23.144C2.412 22.688 1.644 22.04 1.044 21.2C0.468 20.36 0.18 19.292 0.18 17.996C0.18 16.772 0.432 15.56 0.936 14.36C1.44 13.16 2.1 12.02 2.916 10.94C3.732 9.836 4.62 8.828 5.58 7.916C6.564 7.004 7.524 6.212 8.46 5.54C9.324 4.916 10.224 4.352 11.16 3.848C12.12 3.344 13.092 2.9 14.076 2.516C15.324 2.036 16.584 1.664 17.856 1.4C19.128 1.112 20.424 0.919998 21.744 0.823998C21.792 0.799998 21.852 0.787998 21.924 0.787998C21.996 0.787998 22.056 0.787998 22.104 0.787998C22.56 0.787998 23.088 0.847998 23.688 0.967998C24.288 1.064 24.852 1.244 25.38 1.508C25.932 1.748 26.34 2.072 26.604 2.48C26.748 2.288 26.94 1.988 27.18 1.58C27.444 1.172 27.576 0.871999 27.576 0.68C27.576 0.56 27.624 0.427999 27.72 0.283998C27.816 0.139999 27.924 0.0679991 28.044 0.0679991C28.164 0.0679991 28.236 0.127999 28.26 0.247999C28.284 0.343999 28.296 0.427999 28.296 0.5C28.296 0.644 28.212 0.907999 28.044 1.292C27.9 1.676 27.732 2.06 27.54 2.444C27.348 2.804 27.216 3.068 27.144 3.236C27.264 3.404 27.396 3.656 27.54 3.992C27.684 4.328 27.756 4.592 27.756 4.784C27.756 4.928 27.72 5.12 27.648 5.36C27.576 5.576 27.468 5.72 27.324 5.792C27.324 5.792 27.252 5.648 27.108 5.36C26.964 5.048 26.868 4.856 26.82 4.784C26.58 5.264 26.304 5.852 25.992 6.548C25.704 7.244 25.368 7.796 24.984 8.204C24.888 8.3 24.768 8.36 24.624 8.384C24.504 8.408 24.384 8.42 24.264 8.42C24.192 8.42 24.024 8.408 23.76 8.384C23.52 8.336 23.28 8.276 23.04 8.204C22.824 8.132 22.716 8.06 22.716 7.988C22.716 7.796 22.848 7.508 23.112 7.124C23.376 6.74 23.7 6.32 24.084 5.864C24.468 5.408 24.828 4.976 25.164 4.568C25.5 4.136 25.74 3.812 25.884 3.596C25.452 2.828 24.888 2.3 24.192 2.012C23.496 1.7 22.728 1.544 21.888 1.544C21.816 1.544 21.744 1.544 21.672 1.544C21.6 1.544 21.528 1.556 21.456 1.58C19.128 1.724 16.932 2.252 14.868 3.164C14.004 3.548 13.164 3.992 12.348 4.496C11.556 4.976 10.776 5.504 10.008 6.08C9.168 6.752 8.316 7.544 7.452 8.456C6.588 9.344 5.796 10.316 5.076 11.372C4.38 12.428 3.816 13.532 3.384 14.684C2.952 15.812 2.736 16.94 2.736 18.068C2.736 19.484 3.084 20.612 3.78 21.452C4.5 22.292 5.412 22.892 6.516 23.252C7.644 23.612 8.82 23.792 10.044 23.792C11.868 23.792 13.68 23.516 15.48 22.964C17.304 22.388 19.056 21.644 20.736 20.732C22.44 19.796 24 18.8 25.416 17.744C25.464 17.696 25.524 17.648 25.596 17.6C25.692 17.552 25.776 17.528 25.848 17.528C25.92 17.528 25.956 17.564 25.956 17.636C25.956 17.876 25.836 18.092 25.596 18.284C25.26 18.596 24.888 18.896 24.48 19.184C24.096 19.448 23.7 19.712 23.292 19.976C21.252 21.368 19.104 22.46 16.848 23.252C14.592 24.044 12.216 24.44 9.72 24.44Z" fill="#0DA612"/>
</svg>
